P1 201 101
000000000000000000000000000000000000000000000000000000000000000000000000000000000000000000000000000010000000000000000000000000000000000000000000000000000000000000000000000000000000000000000000000000000
111111111111111111111111111111111111111111111111111111111111111111111111111111111111111111111111111000111111111111111111111111111111111111111111111111111111111111111111111111111111111111111111111111111
111111111111111111111111111111111111111111111111111111111111111111111111111111111111111111111111110010111111111111111111111111111111111111111111111111111111111111111111111111111111111111111111111111110
111111111111111111111111111111111111111111111111111111111111111111111111111111111111111111111111100000111111111111111111111111111111111111111111111111111111111111111111111111111111111111111111111111100
111111111111111111111111111111111111111111111111111111111111111111111111111111111111111111111111001110111111111111111111111111111111111111111111111111111111111111111111111111111111111111111111111111001
111111111111111111111111111111111111111111111111111111111111111111111111111111111111111111111110001100111111111111111111111111111111111111111111111111111111111111111111111111111111111111111111111110000
111111111111111111111111111111111111111111111111111111111111111111111111111111111111111111111100101000111111111111111111111111111111111111111111111111111111111111111111111111111111111111111111111100111
111111111111111111111111111111111111111111111111111111111111111111111111111111111111111111111000000010111111111111111111111111111111111111111111111111111111111111111111111111111111111111111111111000110
111111111111111111111111111111111111111111111111111111111111111111111111111111111111111111110011111000111111111111111111111111111111111111111111111111111111111111111111111111111111111111111111110010100
111111111111111111111111111111111111111111111111111111111111111111111111111111111111111111100011110010111111111111111111111111111111111111111111111111111111111111111111111111111111111111111111100000001
111111111111111111111111111111111111111111111111111111111111111111111111111111111111111111001011100000111111111111111111111111111111111111111111111111111111111111111111111111111111111111111111001111100
111111111111111111111111111111111111111111111111111111111111111111111111111111111111111110000011001110111111111111111111111111111111111111111111111111111111111111111111111111111111111111111110001111001
111111111111111111111111111111111111111111111111111111111111111111111111111111111111111100111010001100111111111111111111111111111111111111111111111111111111111111111111111111111111111111111100101110000
111111111111111111111111111111111111111111111111111111111111111111111111111111111111111000110000101000111111111111111111111111111111111111111111111111111111111111111111111111111111111111111000001100111
111111111111111111111111111111111111111111111111111111111111111111111111111111111111110010100110000010111111111111111111111111111111111111111111111111111111111111111111111111111111111111110011101000110
111111111111111111111111111111111111111111111111111111111111111111111111111111111111100000000100111000111111111111111111111111111111111111111111111111111111111111111111111111111111111111100011000010100
111111111111111111111111111111111111111111111111111111111111111111111111111111111111001111110000110010111111111111111111111111111111111111111111111111111111111111111111111111111111111111001010011000001
111111111111111111111111111111111111111111111111111111111111111111111111111111111110001111100110100000111111111111111111111111111111111111111111111111111111111111111111111111111111111110000000010011100
111111111111111111111111111111111111111111111111111111111111111111111111111111111100101111000100001110111111111111111111111111111111111111111111111111111111111111111111111111111111111100111111000011001
111111111111111111111111111111111111111111111111111111111111111111111111111111111000001110010001101100111111111111111111111111111111111111111111111111111111111111111111111111111111111000111110011010000
111111111111111111111111111111111111111111111111111111111111111111111111111111110011101100000101001000111111111111111111111111111111111111111111111111111111111111111111111111111111110010111100010000111
111111111111111111111111111111111111111111111111111111111111111111111111111111100011001001110000000010111111111111111111111111111111111111111111111111111111111111111111111111111111100000111001000110110
111111111111111111111111111111111111111111111111111111111111111111111111111111001010000001100111111000111111111111111111111111111111111111111111111111111111111111111111111111111111001110110000010100100
111111111111111111111111111111111111111111111111111111111111111111111111111110000000111101000111110010111111111111111111111111111111111111111111111111111111111111111111111111111110001100100111000000001
111111111111111111111111111111111111111111111111111111111111111111111111111100111110111000010111100000111111111111111111111111111111111111111111111111111111111111111111111111111100101000000110011111100
111111111111111111111111111111111111111111111111111111111111111111111111111000111100110011000111001110111111111111111111111111111111111111111111111111111111111111111111111111111000000011110100011111001
111111111111111111111111111111111111111111111111111111111111111111111111110010111000100010010110001100111111111111111111111111111111111111111111111111111111111111111111111111110011111011100001011110000
111111111111111111111111111111111111111111111111111111111111111111111111100000110010001000000100101000111111111111111111111111111111111111111111111111111111111111111111111111100011110011001100011100111
111111111111111111111111111111111111111111111111111111111111111111111111001110100000100011110000000010111111111111111111111111111111111111111111111111111111111111111111111111001011100010001001011000110
111111111111111111111111111111111111111111111111111111111111111111111110001100001110001011100111111000111111111111111111111111111111111111111111111111111111111111111111111110000011001000100000010010100
111111111111111111111111111111111111111111111111111111111111111111111100101001101100100011000111110010111111111111111111111111111111111111111111111111111111111111111111111100111010000010001111000000001
111111111111111111111111111111111111111111111111111111111111111111111000000001001000001010010111100000111111111111111111111111111111111111111111111111111111111111111111111000110000111000101110011111100
111111111111111111111111111111111111111111111111111111111111111111110011111100000011100000000111001110111111111111111111111111111111111111111111111111111111111111111111110010100110110010001100011111001
111111111111111111111111111111111111111111111111111111111111111111100011111001111011001111110110001100111111111111111111111111111111111111111111111111111111111111111111100000000100100000101001011110000
111111111111111111111111111111111111111111111111111111111111111111001011110001110010001111100100101000111111111111111111111111111111111111111111111111111111111111111111001111110000001110000000011100111
111111111111111111111111111111111111111111111111111111111111111110000011100101100000101111000000000010111111111111111111111111111111111111111111111111111111111111111110001111100111101100111111011000110
111111111111111111111111111111111111111111111111111111111111111100111011000001001110001110011111111000111111111111111111111111111111111111111111111111111111111111111100101111000111001000111110010010100
111111111111111111111111111111111111111111111111111111111111111000110010011100001100101100011111110010111111111111111111111111111111111111111111111111111111111111111000001110010110000010111100000000001
111111111111111111111111111111111111111111111111111111111111110010100000011001101000001001011111100000111111111111111111111111111111111111111111111111111111111111110011101100000100111000111001111111100
111111111111111111111111111111111111111111111111111111111111100000001111010001000011100000011111001110111111111111111111111111111111111111111111111111111111111111100011001001110000110010110001111111001
111111111111111111111111111111111111111111111111111111111111001111101110000100011011001111011110001100111111111111111111111111111111111111111111111111111111111111001010000001100110100000100101111110000
111111111111111111111111111111111111111111111111111111111110001111001100110001010010001110011100101000111111111111111111111111111111111111111111111111111111111110000000111101000100001110000001111100111
111111111111111111111111111111111111111111111111111111111100101110001000100100000000101100011000000010111111111111111111111111111111111111111111111111111111111100111110111000010001101100111101111000110
111111111111111111111111111111111111111111111111111111111000001100100010000001111110001001010011111000111111111111111111111111111111111111111111111111111111111000111100110011000101001000111001110010100
111111111111111111111111111111111111111111111111111111110011101000001000111101111100100000000011110010111111111111111111111111111111111111111111111111111111110010111000100010010000000010110001100000001
111111111111111111111111111111111111111111111111111111100011000011100010111001111000001111111011100000111111111111111111111111111111111111111111111111111111100000110010001000000111111000100101001111100
111111111111111111111111111111111111111111111111111111001010011011001000110001110011101111110011001110111111111111111111111111111111111111111111111111111111001110100000100011110111110010000000001111001
111111111111111111111111111111111111111111111111111110000000010010000010100101100011001111100010001100111111111111111111111111111111111111111111111111111110001100001110001011100111100000111111101110000
111111111111111111111111111111111111111111111111111100111111000000111000000001001010001111001000101000111111111111111111111111111111111111111111111111111100101001101100100011000111001110111111001100111
111111111111111111111111111111111111111111111111111000111110011110110011111100000000101110000010000010111111111111111111111111111111111111111111111111111000000001001000001010010110001100111110001000110
111111111111111111111111111111111111111111111111110010111100011100100011111001111110001100111000111000111111111111111111111111111111111111111111111111110011111100000011100000000100101000111100100010100
111111111111111111111111111111111111111111111111100000111001011000001011110001111100101000110010110010111111111111111111111111111111111111111111111111100011111001111011001111110000000010111000001000001
111111111111111111111111111111111111111111111111001110110000010011100011100101111000000010100000100000111111111111111111111111111111111111111111111111001011110001110010001111100111111000110011100011100
111111111111111111111111111111111111111111111110001100100111000011001011000001110011111000001110001110111111111111111111111111111111111111111111111110000011100101100000101111000111110010100011001011001
111111111111111111111111111111111111111111111100101000000110011010000010011101100011110011101100101100111111111111111111111111111111111111111111111100111011000001001110001110010111100000001010000010000
111111111111111111111111111111111111111111111000000011110100010000111000011001001011100011001000001000111111111111111111111111111111111111111111111000110010011100001100101100000111001111100000111000111
111111111111111111111111111111111111111111110011111011100001000110110011010000000011001010000011100010111111111111111111111111111111111111111111110010100000011001101000001001110110001111001110110010110
111111111111111111111111111111111111111111100011110011001100010100100010000111111010000000111011001000111111111111111111111111111111111111111111100000001111010001000011100001100100101110001100100000100
111111111111111111111111111111111111111111001011100010001001000000001000110111110000111110110010000010111111111111111111111111111111111111111111001111101110000100011011001101000000001100101000001110001
111111111111111111111111111111111111111110000011001000100000011111100010100111100110111100100000111000111111111111111111111111111111111111111110001111001100110001010010001000011111101000000011101100100
111111111111111111111111111111111111111100111010000010001111011111001000000111000100111000001110110010111111111111111111111111111111111111111100101110001000100100000000100011011111000011111011001000001
111111111111111111111111111111111111111000110000111000101110011110000011110110010000110011101100100000111111111111111111111111111111111111111000001100100010000001111110001010011110011011110010000011100
111111111111111111111111111111111111110010100110110010001100011100111011100100000110100011001000001110111111111111111111111111111111111111110011101000001000111101111100100000011100010011100000111011001
111111111111111111111111111111111111100000000100100000101001011000110011000001110100001010000011101100111111111111111111111111111111111111100011000011100010111001111000001111011001000011001110110010000
111111111111111111111111111111111111001111110000001110000000010010100010011101100001100000111011001000111111111111111111111111111111111111001010011011001000110001110011101110010000011010001100100000111
111111111111111111111111111111111110001111100111101100111111000000001000011001001101001110110010000010111111111111111111111111111111111110000000010010000010100101100011001100000111010000101000001110110
111111111111111111111111111111111100101111000111001000111110011111100011010000001000001100100000111000111111111111111111111111111111111100111111000000111000000001001010001001110110000110000011101100100
111111111111111111111111111111111000001110010110000010111100011111001010000111100011101000001110110010111111111111111111111111111111111000111110011110110011111100000000100001100100110100111011001000001
111111111111111111111111111111110011101100000100111000111001011110000000110111001011000011101100100000111111111111111111111111111111110010111100011100100011111001111110001101000000100000110010000011100
111111111111111111111111111111100011001001110000110010110000011100111110100110000010011011001000001110111111111111111111111111111111100000111001011000001011110001111100101000011110001110100000111011001
111111111111111111111111111111001010000001100110100000100111011000111100000100111000010010000011101100111111111111111111111111111111001110110000010011100011100101111000000011011100101100001110110010000
111111111111111111111111111110000000111101000100001110000110010010111001110000110011000000111011001000111111111111111111111111111110001100100111000011001011000001110011111010011000001001101100100000111
111111111111111111111111111100111110111000010001101100110100000000110001100110100010011110110010000010111111111111111111111111111100101000000110011010000010011101100011110000010011100001001000001110110
111111111111111111111111111000111100110011000101001000100001111110100101000100001000011100100000111000111111111111111111111111111000000011110100010000111000011001001011100111000011001100000011101100100
111111111111111111111111110010111000100010010000000010001101111100000000010001100011011000001110110010111111111111111111111111110011111011100001000110110011010000000011000110011010001001111011001000001
111111111111111111111111100000110010001000000111111000101001111001111111000101001010010011101100100000111111111111111111111111100011110011001100010100100010000111111010010100010000100001110010000011100
111111111111111111111111001110100000100011110111110010000001110001111110010000000000000011001000001110111111111111111111111111001011100010001001000000001000110111110000000001000110001101100000111011001
111111111111111111111110001100001110001011100111100000111101100101111100000111111111111010000011101100111111111111111111111110000011001000100000011111100010100111100111111100010100101001001110110010000
111111111111111111111100101001101100100011000111001110111001000001111001110111111111110000111011001000111111111111111111111100111010000010001111011111001000000111000111111001000000000000001100100000111
111111111111111111111000000001001000001010010110001100110000011101110001100111111111100110110010000010111111111111111111111000110000111000101110011110000011110110010111110000011111111111101000001110110
111111111111111111110011111100000011100000000100101000100111011001100101000111111111000100100000111000111111111111111111110010100110110010001100011100111011100100000111100111011111111111000011101100100
111111111111111111100011111001111011001111110000000010000110010001000000010111111110010000001110110010111111111111111111100000000100100000101001011000110011000001110111000110011111111110011011001000001
111111111111111111001011110001110010001111100111111000110100000100011111000111111100000111101100100000111111111111111111001111110000001110000000010010100010011101100110010100011111111100010010000011100
111111111111111110000011100101100000101111000111110010100001110001011110010111111001110111001000001110111111111111111110001111100111101100111111000000001000011001000100000001011111111001000000111011001
111111111111111100111011000001001110001110010111100000001101100100011100000111110001100110000011101100111111111111111100101111000111001000111110011111100011010000010001111100011111110000011110110010000
111111111111111000110010011100001100101100000111001111101001000001011001110111100101000100111011001000111111111111111000001110010110000010111100011111001010000111000101111001011111100111011100100000111
111111111111110010100000011001101000001001110110001111000000011100010001100111000000010000110010000010111111111111110011101100000100111000111001011110000000110110010001110000011111000110011000001110110
111111111111100000001111010001000011100001100100101110011111011001000101000110011111000110100000111000111111111111100011001001110000110010110000011100111110100100000101100111011110010100010011101100100
111111111111001111101110000100011011001101000000001100011110010000010000010100011110010100001110110010111111111111001010000001100110100000100111011000111100000001110001000110011100000001000011001000001
111111111110001111001100110001010010001000011111101001011100000111000111000001011100000001101100100000111111111110000000111101000100001110000110010010111001111101100100010100011001111100011010000011100
111111111100101110001000100100000000100011011111000000011001110110010110011100011001111101001000001110111111111100111110111000010001101100110100000000110001111001000001000001010001111001010000111011001
111111111000001100100010000001111110001010011110011111010001100100000100011001010001111000000011101100111111111000111100110011000101001000100001111110100101110000011100011100000101110000000110110010000
111111110011101000001000111101111100100000011100011110000101000001110001010000000101110011111011001000111111110010111000100010010000000010001101111100000001100111011001011001110001100111110100100000111
111111100011000011100010111001111000001111011001011100110000011101100100000111110001100011110010000010111111100000110010001000000111111000101001111001111101000110010000010001100101000111100000001110110
111111001010011011001000110001110011101110010000011000100111011001000001110111100101001011100000111000111111001110100000100011110111110010000001110001111000010100000111000101000000010111001111101100100
111110000000010010000010100101100011001100000111010010000110010000011101100111000000000011001110110010111110001100001110001011100111100000111101100101110011000001110110010000011111000110001111001000001
111100111111000000111000000001001010001001110110000000110100000111011001000110011111111010001100100000111100101001101100100011000111001110111001000001100010011101100100000111011110010100101110000011100
111000111110011110110011111100000000100001100100111110100001110110010000010100011111110000101000001110111000000001001000001010010110001100110000011101001000011001000001110110011100000000001100111011001
110010111100011100100011111001111110001101000000111100001101100100000111000001011111100110000011101100110011111100000011100000000100101000100111011000000011010000011101100100011001111111101000110010000
100000111001011000001011110001111100101000011110111001101001000001110110011100011111000100111011001000100011111001111011001111110000000010000110010011111010000111011001000001010001111111000010100000111
001110110000010011100011100101111000000011011100110001000000011101100100011001011110010000110010000010001011110001110010001111100111111000110100000011110000110110010000011100000101111110011000001110110
